# xmcd
#
# Track frame offsets:
# 150
# 17780
# 29015
# 47455
# 60387
# 78767
# 93467
# 108045
# 126697
# 140057
# 155967
# 169065
# 182952
# 199215
# 216115
# 233217
# 249302
# 266687
#
# Disc length: 3783 seconds
#
#
# Revision: 0
# Processed by: cddbd v1.5.1PL2 Copyright (c) Steve Scherf et al.
# Submitted via: FreeRIP 2.944 
#
DISCID=040ec512
DTITLE=Miltinho Rodrigues - Paz do meu amor
DYEAR=1900
DGENRE=Sertanejo
TTITLE0=Borbulhas de amor
TTITLE1=Paz do meu amor
TTITLE2=Fascinação
TTITLE3=A noite do meu bem
TTITLE4=Luzes da ribalta
TTITLE5=Rosa vermelha
TTITLE6=Sentimental demais
TTITLE7=Yolanda
TTITLE8=O trovador
TTITLE9=Ouça
TTITLE10=A pretendida
TTITLE11=Serra da boa esperança
TTITLE12=Somente tu
TTITLE13=Devolva a passagem
TTITLE14=Minha proposta
TTITLE15=Noite fria
TTITLE16=Sublime amor do meu viver
TTITLE17=Na hora do beijo
EXTD=
EXTT0=
EXTT1=
EXTT2=
EXTT3=
EXTT4=
EXTT5=
EXTT6=
EXTT7=
EXTT8=
EXTT9=
EXTT10=
EXTT11=
EXTT12=
EXTT13=
EXTT14=
EXTT15=
EXTT16=
EXTT17=
PLAYORDER=
